<svg width="99" height="99" viewBox="0 0 99 99" fill="none" xmlns="http://www.w3.org/2000/svg">
<path d="M28.2898 19.6185H18.928V90.5471H28.2898V19.6185Z" fill="#F74F73"/>
<path d="M29.0265 90.5599H18.1929C17.4954 90.5599 16.8266 90.8363 16.3334 91.3282C15.8403 91.8202 15.5632 92.4873 15.5632 93.183V95.4928H31.6556V93.183C31.6556 92.4874 31.3786 91.8203 30.8856 91.3284C30.3926 90.8365 29.7238 90.5601 29.0265 90.5599Z" fill="#373D4C"/>
<path d="M70.0363 90.5599H79.3981L79.3981 19.6313H70.0363L70.0363 90.5599Z" fill="#F74F73"/>
<path d="M69.2999 90.5599H80.1335C80.8309 90.5599 81.4998 90.8363 81.9929 91.3282C82.4861 91.8202 82.7632 92.4873 82.7632 93.183V95.4928H66.6708V93.183C66.6708 92.4874 66.9477 91.8203 67.4408 91.3284C67.9338 90.8365 68.6025 90.5601 69.2999 90.5599Z" fill="#373D4C"/>
<path d="M28.2898 36.2147H18.928V54.6977H28.2898V36.2147Z" fill="#C12140"/>
<path d="M79.3981 36.2147H70.0363V54.6977H79.3981V36.2147Z" fill="#C12140"/>
<path d="M49.6178 58.5979C49.3129 58.5979 49.0206 58.4771 48.805 58.262C48.5894 58.047 48.4683 57.7554 48.4683 57.4513V47.5333C48.4683 47.2292 48.5894 46.9376 48.805 46.7225C49.0206 46.5075 49.3129 46.3867 49.6178 46.3867C49.9226 46.3867 50.215 46.5075 50.4306 46.7225C50.6462 46.9376 50.7673 47.2292 50.7673 47.5333V57.4513C50.7673 57.7554 50.6462 58.047 50.4306 58.262C50.215 58.4771 49.9226 58.5979 49.6178 58.5979Z" fill="#E2B088"/>
<path d="M62.6 58.6928C62.2952 58.6928 62.0028 58.572 61.7873 58.357C61.5717 58.142 61.4506 57.8503 61.4506 57.5462V47.6283C61.4506 47.3242 61.5717 47.0325 61.7873 46.8175C62.0028 46.6025 62.2952 46.4817 62.6 46.4817C62.9049 46.4817 63.1973 46.6025 63.4128 46.8175C63.6284 47.0325 63.7495 47.3242 63.7495 47.6283V57.5462C63.7495 57.8503 63.6284 58.142 63.4128 58.357C63.1973 58.572 62.9049 58.6928 62.6 58.6928Z" fill="#E2B088"/>
<path d="M35.9184 58.6928C35.6136 58.6928 35.3212 58.572 35.1057 58.357C34.8901 58.142 34.769 57.8503 34.769 57.5462V47.6283C34.769 47.3242 34.8901 47.0325 35.1057 46.8175C35.3212 46.6025 35.6136 46.4817 35.9184 46.4817C36.2233 46.4817 36.5157 46.6025 36.7312 46.8175C36.9468 47.0325 37.0679 47.3242 37.0679 47.6283V57.5462C37.0679 57.8503 36.9468 58.142 36.7312 58.357C36.5157 58.572 36.2233 58.6928 35.9184 58.6928Z" fill="#E2B088"/>
<path d="M49.9873 55.6121L51.8695 57.3336C51.9221 57.3817 51.9642 57.44 51.9932 57.505C52.0222 57.57 52.0375 57.6402 52.0382 57.7113C52.0388 57.7824 52.0249 57.8529 51.9971 57.9184C51.9693 57.9839 51.9283 58.043 51.8767 58.0921L50.9638 58.9591C50.9128 59.0076 50.8722 59.0659 50.8444 59.1304C50.8167 59.195 50.8024 59.2645 50.8024 59.3348C50.8024 59.405 50.8167 59.4745 50.8444 59.5391C50.8722 59.6037 50.9128 59.6619 50.9638 59.7104L52.7078 61.3729C52.8028 61.4634 52.86 61.5865 52.8678 61.7173C52.8756 61.8482 52.8334 61.9771 52.7497 62.0783L51.3764 63.7407C51.2902 63.8452 51.2482 63.9792 51.2595 64.114C51.2709 64.2489 51.3346 64.374 51.437 64.4627L53.0084 65.8234C53.061 65.8691 53.104 65.9249 53.1346 65.9874C53.1652 66.05 53.1829 66.1181 53.1866 66.1876C53.1903 66.2572 53.1799 66.3267 53.1561 66.3922C53.1323 66.4576 53.0956 66.5176 53.048 66.5686L49.5749 70.2925C49.5275 70.3433 49.4704 70.3841 49.407 70.4124C49.3435 70.4408 49.275 70.4562 49.2055 70.4577C49.136 70.4592 49.0669 70.4469 49.0023 70.4213C48.9376 70.3957 48.8788 70.3575 48.8292 70.3089L47.3165 68.8247C47.222 68.7319 47.1666 68.6066 47.1616 68.4745C47.1566 68.3423 47.2023 68.2132 47.2895 68.1136L48.6252 66.5858C48.7101 66.4886 48.7558 66.3634 48.7532 66.2345C48.7507 66.1056 48.7001 65.9822 48.6114 65.8884L47.0835 64.2741C46.9928 64.1783 46.9421 64.0517 46.9416 63.92C46.941 63.7883 46.9907 63.6613 47.0806 63.5647L48.3335 62.2176C48.4265 62.1177 48.4763 61.9853 48.4722 61.8491C48.4681 61.7128 48.4104 61.5837 48.3117 61.4895L46.2036 59.4791C46.1537 59.4315 46.1137 59.3745 46.0861 59.3115C46.0585 59.2484 46.0438 59.1804 46.0428 59.1116C46.0418 59.0428 46.0545 58.9744 46.0802 58.9106C46.1059 58.8467 46.1442 58.7886 46.1926 58.7396L49.2657 55.6302C49.3603 55.5346 49.4883 55.4794 49.6229 55.476C49.7574 55.4726 49.888 55.5214 49.9873 55.6121Z" fill="#E4E6F4"/>
<path d="M62.9695 55.6951L64.8518 57.4169C64.9043 57.465 64.9464 57.5233 64.9754 57.5883C65.0044 57.6533 65.0197 57.7235 65.0204 57.7946C65.0211 57.8657 65.0071 57.9362 64.9793 58.0017C64.9516 58.0672 64.9106 58.1263 64.859 58.1754L63.946 59.0421C63.895 59.0906 63.8544 59.1489 63.8267 59.2134C63.7989 59.278 63.7846 59.3475 63.7846 59.4178C63.7846 59.488 63.7989 59.5575 63.8267 59.6221C63.8544 59.6867 63.895 59.745 63.946 59.7934L65.69 61.4559C65.7851 61.5464 65.8422 61.6695 65.85 61.8003C65.8578 61.9312 65.8156 62.0602 65.732 62.1613L64.3587 63.8237C64.2724 63.9282 64.2305 64.0622 64.2418 64.1971C64.2531 64.3319 64.3168 64.4571 64.4193 64.5458L65.9906 65.9064C66.0433 65.9521 66.0862 66.0079 66.1168 66.0705C66.1475 66.133 66.1651 66.2011 66.1688 66.2706C66.1725 66.3402 66.1622 66.4097 66.1384 66.4752C66.1146 66.5407 66.0778 66.6007 66.0303 66.6517L62.5572 70.3756C62.5098 70.4264 62.4527 70.4672 62.3893 70.4956C62.3258 70.5241 62.2573 70.5395 62.1878 70.541C62.1182 70.5425 62.0491 70.5301 61.9845 70.5045C61.9198 70.4789 61.861 70.4406 61.8115 70.3919L60.2988 68.9077C60.2043 68.8149 60.1489 68.6897 60.1439 68.5575C60.1388 68.4254 60.1846 68.2963 60.2718 68.1966L61.6074 66.6689C61.6924 66.5717 61.738 66.4464 61.7355 66.3175C61.7329 66.1886 61.6824 66.0653 61.5936 65.9715L60.0657 64.3572C59.9751 64.2614 59.9244 64.1348 59.9238 64.003C59.9233 63.8713 59.973 63.7443 60.0628 63.6477L61.3158 62.3006C61.4087 62.2007 61.4585 62.0683 61.4545 61.9321C61.4504 61.7959 61.3927 61.6667 61.2939 61.5725L59.1858 59.5621C59.1359 59.5145 59.096 59.4576 59.0684 59.3945C59.0408 59.3314 59.0261 59.2634 59.025 59.1946C59.024 59.1258 59.0368 59.0574 59.0625 58.9936C59.0882 58.9297 59.1264 58.8716 59.1749 58.8226L62.248 55.7135C62.3425 55.6179 62.4705 55.5627 62.605 55.5593C62.7396 55.5558 62.8702 55.6045 62.9695 55.6951Z" fill="#E4E6F4"/>
<path d="M36.2889 55.6844L38.1712 57.4063C38.2237 57.4544 38.2658 57.5127 38.2948 57.5777C38.3238 57.6427 38.3392 57.7129 38.3398 57.784C38.3405 57.8551 38.3265 57.9256 38.2987 57.9911C38.271 58.0566 38.23 58.1157 38.1784 58.1648L37.2651 59.0316C37.2142 59.0801 37.1737 59.1384 37.146 59.203C37.1183 59.2675 37.104 59.337 37.104 59.4072C37.104 59.4775 37.1183 59.547 37.146 59.6115C37.1737 59.6761 37.2142 59.7344 37.2651 59.7829L39.0094 61.4455C39.1044 61.5361 39.1614 61.6591 39.1692 61.79C39.177 61.9208 39.1349 62.0497 39.0514 62.1509L37.6781 63.8134C37.5918 63.9179 37.5498 64.0518 37.5611 64.1867C37.5723 64.3216 37.636 64.4467 37.7384 64.5355L39.3097 65.8962C39.3624 65.9419 39.4054 65.9977 39.436 66.0602C39.4667 66.1228 39.4844 66.1909 39.4881 66.2604C39.4918 66.3299 39.4815 66.3995 39.4577 66.465C39.4339 66.5305 39.3972 66.5905 39.3497 66.6415L35.8766 70.3656C35.8292 70.4166 35.772 70.4576 35.7084 70.4861C35.6449 70.5146 35.5762 70.5301 35.5065 70.5316C35.4368 70.5332 35.3675 70.5207 35.3027 70.495C35.2379 70.4693 35.179 70.4308 35.1294 70.3819L33.6165 68.8971C33.5219 68.8043 33.4665 68.6791 33.4614 68.5469C33.4563 68.4148 33.502 68.2856 33.5892 68.1859L34.9248 66.6581C35.0098 66.5609 35.0555 66.4357 35.053 66.3068C35.0504 66.1778 34.9998 66.0545 34.911 65.9607L33.3834 64.3463C33.2928 64.2505 33.242 64.1239 33.2415 63.9921C33.241 63.8604 33.2907 63.7334 33.3805 63.6369L34.6332 62.2896C34.7261 62.1897 34.7759 62.0574 34.7719 61.9211C34.7678 61.7849 34.7101 61.6557 34.6113 61.5615L32.5032 59.551C32.4534 59.5034 32.4135 59.4464 32.386 59.3833C32.3584 59.3202 32.3437 59.2523 32.3427 59.1835C32.3417 59.1147 32.3544 59.0464 32.3801 58.9825C32.4057 58.9186 32.4439 58.8605 32.4923 58.8115L35.5654 55.7022C35.6601 55.6062 35.7886 55.5507 35.9236 55.5474C36.0586 55.5441 36.1896 55.5932 36.2889 55.6844Z" fill="#E4E6F4"/>
<path d="M3.18475 3.75989C3.18475 3.75989 4.62157 6.29986 4.93767 8.3984C4.94084 8.41932 4.94428 8.44025 4.94744 8.46089C5.13634 9.59105 5.72247 10.6172 6.60082 11.3555C7.47917 12.0939 8.59236 12.4961 9.74098 12.4903H88.5854C89.7339 12.496 90.847 12.0937 91.7252 11.3554C92.6035 10.617 93.1895 9.59095 93.3784 8.46089C93.3815 8.44025 93.385 8.41932 93.3881 8.3984C93.7048 6.29986 95.1416 3.75989 95.1416 3.75989H3.18475Z" fill="#373D4C"/>
<path d="M11.5879 12.4922C11.5879 12.4922 12.7632 14.5681 13.021 16.2828C13.0236 16.3 13.0264 16.3172 13.029 16.3341C13.1834 17.2577 13.6623 18.0962 14.38 18.6996C15.0978 19.303 16.0075 19.6318 16.9461 19.6271H81.3804C82.319 19.6318 83.2287 19.303 83.9464 18.6996C84.6642 18.0962 85.1431 17.2577 85.2975 16.3341C85.3 16.3172 85.3029 16.3 85.3055 16.2828C85.5641 14.5681 86.7386 12.4922 86.7386 12.4922H11.5879Z" fill="#F74F73"/>
<path d="M54.4168 19.6185H43.9093V32.1441H54.4168V19.6185Z" fill="#373D4C"/>
<path d="M80.125 44.9232H18.2019C17.4849 44.9232 16.7972 45.2073 16.2902 45.7131C15.7832 46.2188 15.4984 46.9048 15.4984 47.62C15.4984 48.3352 15.7832 49.0212 16.2902 49.5269C16.7972 50.0326 17.4849 50.3168 18.2019 50.3168H80.125C80.842 50.3168 81.5297 50.0326 82.0367 49.5269C82.5437 49.0212 82.8285 48.3352 82.8285 47.62C82.8285 46.9048 82.5437 46.2188 82.0367 45.7131C81.5297 45.2073 80.842 44.9232 80.125 44.9232Z" fill="#F4DCC6"/>
<path d="M21.4833 50.3168H24.2067C22.9391 48.8038 22.5035 46.3324 22.3555 44.9232H20.0439C20.1623 46.1965 20.504 48.4137 21.4833 50.3168Z" fill="#E2B088"/>
<path d="M29.5302 50.3168H32.2535C30.9859 48.8038 30.5506 46.3307 30.4023 44.9232H28.0908C28.2094 46.1965 28.5511 48.4137 29.5302 50.3168Z" fill="#E2B088"/>
<path d="M37.7089 50.3168H40.4323C39.1647 48.8038 38.7291 46.3307 38.5811 44.9232H36.2695C36.3879 46.1965 36.7296 48.4137 37.7089 50.3168Z" fill="#E2B088"/>
<path d="M45.7557 50.3168H48.4791C47.2112 48.8038 46.7759 46.3307 46.6276 44.9232H44.3163C44.4347 46.1965 44.7764 48.4137 45.7557 50.3168Z" fill="#E2B088"/>
<path d="M54.3825 50.3168H57.1061C55.8383 48.8038 55.4029 46.3307 55.2547 44.9232H52.9431C53.0618 46.1965 53.4035 48.4137 54.3825 50.3168Z" fill="#E2B088"/>
<path d="M62.4296 50.3168H65.153C63.8851 48.8038 63.4498 46.3324 63.3015 44.9232H60.9899C61.1083 46.1965 61.4503 48.4137 62.4296 50.3168Z" fill="#E2B088"/>
<path d="M69.8075 50.3168H72.5308C71.2633 48.8038 70.8276 46.3307 70.6796 44.9232H68.3681C68.4865 46.1965 68.8282 48.4137 69.8075 50.3168Z" fill="#E2B088"/>
<path d="M77.8543 50.3168H80.1245C80.2665 50.3157 80.4082 50.3035 80.5484 50.2804C79.3035 48.7646 78.8733 46.3198 78.7265 44.9232H76.4149C76.5333 46.1965 76.8753 48.4137 77.8543 50.3168Z" fill="#E2B088"/>
<path d="M79.3981 19.6185H70.0363V23.8383H79.3981V19.6185Z" fill="#C12140"/>
<path d="M28.2898 19.6185H18.928V23.8383H28.2898V19.6185Z" fill="#C12140"/>
<path d="M49.1628 32.1471H9.8928L11.4518 37.3303C11.6681 38.049 12.111 38.679 12.7147 39.1268C13.3184 39.5747 14.0507 39.8165 14.803 39.8164H83.5227C84.2752 39.8164 85.0076 39.5744 85.6113 39.1264C86.215 38.6783 86.6578 38.0481 86.8739 37.3291L88.4329 32.146L49.1628 32.1471Z" fill="#F74F73"/>
</svg>
