<svg width="99" height="99" viewBox="0 0 99 99" fill="none" xmlns="http://www.w3.org/2000/svg">
<path d="M63.8872 5.4386H33.4636C33.2745 14.6718 28.135 17.3986 26.4134 18.0542C26.3418 18.0819 26.2771 18.1251 26.2241 18.1805C26.171 18.236 26.1309 18.3025 26.1065 18.3752C26.0821 18.4479 26.0741 18.5251 26.083 18.6012C26.0919 18.6774 26.1175 18.7506 26.158 18.8158C26.6631 19.5827 27.3586 20.2062 28.1767 20.6257C29.3063 21.2242 30.5682 21.5311 31.8472 21.5183H65.5036C66.7825 21.5311 68.0443 21.2242 69.1738 20.6257C69.992 20.2061 70.6875 19.5826 71.1928 18.8158C71.2333 18.7506 71.2588 18.6773 71.2677 18.6012C71.2765 18.525 71.2684 18.4479 71.244 18.3752C71.2196 18.3025 71.1795 18.236 71.1264 18.1806C71.0734 18.1251 71.0087 18.0819 70.9371 18.0542C69.2158 17.3986 64.0765 14.6718 63.8872 5.4386Z" fill="#4C5768"/>
<path d="M63.8835 21.5183H33.4671V31.8158H63.8835V21.5183Z" fill="#FFF4EB"/>
<path d="M63.8835 21.5183H33.4671V23.534H63.8835V21.5183Z" fill="#CEB29F"/>
<path d="M79.7267 72.0299V83.8724H36.1376V70.2458L79.7267 72.0299Z" fill="#FFF4EB"/>
<path d="M36.1376 83.8724H42.2794V74.8674H79.7267V72.0299L36.1376 70.2458V83.8724Z" fill="#CEB29F"/>
<path d="M48.6753 40.379H26.1491V48.7434H48.6753H71.2017V40.379H48.6753Z" fill="#CEB29F"/>
<path d="M48.6753 52.5518H22.1016V68.0197H48.6753H75.2493V52.5518H48.6753Z" fill="#FFF4EB"/>
<path d="M43.6268 57.5934H38.5155C38.3644 57.5934 38.2419 57.7156 38.2419 57.8663V60.9076C38.2419 61.0583 38.3644 61.1805 38.5155 61.1805H43.6268C43.7779 61.1805 43.9004 61.0583 43.9004 60.9076V57.8663C43.9004 57.7156 43.7779 57.5934 43.6268 57.5934Z" fill="#47413F"/>
<path d="M72.9607 31.8158H24.3898C23.8221 34.6057 22.5736 37.2129 20.755 39.4068C20.6828 39.4933 20.6368 39.5986 20.6224 39.7102C20.608 39.8219 20.6257 39.9354 20.6736 40.0373C20.7214 40.1393 20.7973 40.2256 20.8925 40.2861C20.9877 40.3466 21.0981 40.3789 21.211 40.3791H76.1395C76.2524 40.3789 76.3629 40.3466 76.458 40.2861C76.5532 40.2256 76.6292 40.1393 76.677 40.0373C76.7248 39.9354 76.7426 39.8219 76.7281 39.7102C76.7137 39.5986 76.6677 39.4933 76.5956 39.4068C74.7769 37.2129 73.5285 34.6057 72.9607 31.8158Z" fill="#4C5768"/>
<path d="M63.6389 40.3791C60.2719 37.8286 57.1588 34.961 54.3424 31.8158H43.0085C40.1921 34.961 37.0789 37.8286 33.7119 40.3791H63.6389Z" fill="#2F3A47"/>
<path d="M53.7239 61.1804H58.8353C58.9864 61.1804 59.1089 61.0582 59.1089 60.9075V57.8662C59.1089 57.7155 58.9864 57.5933 58.8353 57.5933H53.7239C53.5728 57.5933 53.4504 57.7155 53.4504 57.8662V60.9075C53.4504 61.0582 53.5728 61.1804 53.7239 61.1804Z" fill="#47413F"/>
<path d="M52.8837 76.6273H47.7723C47.6213 76.6273 47.4988 76.7495 47.4988 76.9002V79.9415C47.4988 80.0922 47.6213 80.2144 47.7723 80.2144H52.8837C53.0348 80.2144 53.1573 80.0922 53.1573 79.9415V76.9002C53.1573 76.7495 53.0348 76.6273 52.8837 76.6273Z" fill="#47413F"/>
<path d="M75.2493 52.5518H22.1016V68.0197H38.2612L40.7121 65.4563C40.7121 65.4563 35.3275 62.5729 30.9705 57.8129C30.8442 57.6766 30.7604 57.5066 30.7294 57.3237C30.6984 57.1407 30.7215 56.9527 30.7959 56.7826C30.8703 56.6125 30.9927 56.4677 31.1482 56.3659C31.3037 56.2641 31.4856 56.2097 31.6717 56.2094H75.2493V52.5518Z" fill="#CEB29F"/>
<path d="M62.9808 80.2146H68.0922C68.2433 80.2146 68.3658 80.0924 68.3658 79.9417V76.9004C68.3658 76.7497 68.2433 76.6275 68.0922 76.6275H62.9808C62.8297 76.6275 62.7073 76.7497 62.7073 76.9004V79.9417C62.7073 80.0924 62.8297 80.2146 62.9808 80.2146Z" fill="#47413F"/>
<path d="M16.7284 49.3743C16.9837 50.2014 17.4015 50.9695 17.9574 51.6339C18.5133 52.2982 19.1963 52.8456 19.9664 53.244C20.7438 53.649 21.6085 53.8586 22.4855 53.8546H74.8653C75.7423 53.8585 76.607 53.649 77.3844 53.244C78.156 52.8448 78.8401 52.2961 79.3966 51.63C79.9531 50.9638 80.3708 50.1937 80.6253 49.3645C80.6458 49.2962 80.6494 49.224 80.6359 49.1539C80.6224 49.0839 80.5921 49.0182 80.5477 48.9623C80.5033 48.9065 80.446 48.8621 80.3807 48.8331C80.3154 48.804 80.244 48.7912 80.1727 48.7956C74.1041 49.2166 68.1016 46.4009 62.99 42.7473H34.3608C29.248 46.4009 23.2467 49.2166 17.1787 48.7956C17.1066 48.7915 17.0345 48.805 16.9688 48.8348C16.903 48.8647 16.8455 48.91 16.8012 48.967C16.7569 49.0239 16.7271 49.0907 16.7144 49.1617C16.7018 49.2326 16.7066 49.3056 16.7284 49.3743Z" fill="#4C5768"/>
<path d="M48.398 28.9576C47.0066 30.7841 40.5213 38.965 32.1332 44.2462C32.069 44.2862 32.0196 44.346 31.9926 44.4165C31.9655 44.487 31.9622 44.5643 31.9832 44.6369C32.0042 44.7094 32.0483 44.7731 32.1089 44.8184C32.1694 44.8636 32.2431 44.888 32.3188 44.8877H65.0332C65.1088 44.8878 65.1824 44.8634 65.2428 44.8181C65.3033 44.7729 65.3473 44.7092 65.3683 44.6368C65.3893 44.5644 65.3861 44.4871 65.3592 44.4166C65.3323 44.3462 65.2831 44.2863 65.2191 44.2462C56.8281 38.965 50.344 30.7841 48.9543 28.9576C48.9219 28.9146 48.8799 28.8797 48.8316 28.8557C48.7833 28.8316 48.7301 28.8191 48.6761 28.8191C48.6222 28.8191 48.569 28.8316 48.5207 28.8557C48.4724 28.8797 48.4304 28.9146 48.398 28.9576Z" fill="#4C5768"/>
<path d="M48.2689 34.1737C47.0333 35.7594 43.0923 40.5407 38.0221 43.9483C37.9303 44.0094 37.8607 44.0984 37.8235 44.202C37.7863 44.3056 37.7835 44.4184 37.8155 44.5237C37.8476 44.629 37.9127 44.7213 38.0013 44.7868C38.09 44.8524 38.1974 44.8877 38.3077 44.8877H59.0431C59.1534 44.8877 59.2608 44.8523 59.3493 44.7867C59.4379 44.7211 59.503 44.6289 59.535 44.5236C59.567 44.4183 59.5642 44.3055 59.527 44.2019C59.4898 44.0983 59.4202 44.0094 59.3284 43.9483C54.2582 40.5407 50.3178 35.7594 49.0819 34.1737C49.0338 34.1118 48.9722 34.0617 48.9018 34.0272C48.8313 33.9928 48.7539 33.9749 48.6754 33.9749C48.5969 33.9749 48.5195 33.9928 48.449 34.0272C48.3786 34.0617 48.317 34.1118 48.2689 34.1737Z" fill="#FFF4EB"/>
<path d="M50.8259 39.0616H46.5249C46.3738 39.0616 46.2513 39.1838 46.2513 39.3345V41.8622C46.2513 42.0129 46.3738 42.1351 46.5249 42.1351H50.8259C50.977 42.1351 51.0995 42.0129 51.0995 41.8622V39.3345C51.0995 39.1838 50.977 39.0616 50.8259 39.0616Z" fill="#47413F"/>
<path d="M36.1376 65.4563H77.6864C78.9326 65.4564 80.1278 65.9503 81.0089 66.8293L85.7725 71.5796C85.8558 71.6626 85.9125 71.7684 85.9354 71.8835C85.9584 71.9986 85.9466 72.1179 85.9016 72.2264C85.8565 72.3348 85.7803 72.4275 85.6824 72.4927C85.5846 72.5579 85.4695 72.5927 85.3519 72.5926H36.1376V65.4563Z" fill="#4C5768"/>
<path d="M45.7378 68.1479C44.0149 67.3422 42.3372 66.4437 40.7121 65.4563H36.1376V72.5938H43.6625L45.9266 68.7461C45.9568 68.6952 45.9759 68.6385 45.9826 68.5798C45.9894 68.521 45.9837 68.4615 45.9659 68.4051C45.9481 68.3486 45.9186 68.2966 45.8793 68.2523C45.84 68.208 45.7918 68.1724 45.7378 68.1479Z" fill="#2F3A47"/>
<path d="M79.7267 83.8726H36.1376V95.9223H79.7267V83.8726Z" fill="#665E5B"/>
<path d="M27.825 61.1804L16.5793 69.0251V79.0296H27.825H39.0707V69.0251L27.825 61.1804Z" fill="#FFF4EB"/>
<path d="M33.4636 5.43865V3.53761C33.4636 3.48896 33.4801 3.44174 33.5105 3.4037C33.5409 3.36567 33.5834 3.33909 33.631 3.32832C33.6786 3.31755 33.7284 3.32323 33.7723 3.34444C33.8162 3.36565 33.8515 3.40112 33.8725 3.44502L35.4028 5.43865H33.4636Z" fill="#4C5768"/>
<path d="M63.8834 5.43865V3.53761C63.8834 3.48896 63.8669 3.44174 63.8365 3.4037C63.8061 3.36567 63.7636 3.33909 63.716 3.32832C63.6685 3.31755 63.6186 3.32323 63.5747 3.34444C63.5309 3.36565 63.4955 3.40112 63.4745 3.44502L61.9443 5.43865H63.8834Z" fill="#4C5768"/>
<path d="M16.5793 69.0251V73.5827C19.7552 71.8293 24.4277 68.9514 27.825 65.8229C31.6446 69.2512 36.3631 72.0836 39.0707 73.4655V69.0251L27.825 61.1804L16.5793 69.0251Z" fill="#CEB29F"/>
<path d="M60.6891 83.8726H58.6776V88.8943H48.9221V83.8726H46.9106V88.8943H36.1376V90.9008H46.9106V95.9226H48.9221V90.9008H58.6776V95.9226H60.6891V90.9008V88.8943V83.8726Z" fill="#473F3B"/>
<path d="M72.4564 88.8943V83.8726H70.4449V88.8943H62.857V90.9008H70.4449V95.9226H72.4564V90.9008H79.7267V88.8943H72.4564Z" fill="#473F3B"/>
<path d="M27.3074 57.8086C22.8889 62.9613 12.8944 68.0198 12.8944 68.0198L14.3376 70.339C14.5399 70.6629 14.8577 70.8984 15.2269 70.9981C15.5962 71.0978 15.9896 71.0543 16.3281 70.8765C21.2334 68.3185 26.0919 64.3261 27.4511 63.1755C27.5554 63.087 27.6878 63.0384 27.8247 63.0384C27.9616 63.0384 28.094 63.087 28.1983 63.1755C29.5575 64.3261 34.416 68.3185 39.3213 70.8765C39.6598 71.0543 40.0532 71.0978 40.4225 70.9981C40.7918 70.8984 41.1095 70.6629 41.3119 70.339L42.755 68.0198C42.755 68.0198 32.7605 62.9613 28.342 57.8086C28.2783 57.7337 28.1991 57.6734 28.1098 57.6321C28.0204 57.5909 27.9232 57.5695 27.8247 57.5695C27.7263 57.5695 27.629 57.5909 27.5397 57.6321C27.4503 57.6734 27.3711 57.7337 27.3074 57.8086Z" fill="#4C5768"/>
<path d="M42.2794 83.8726H36.1376V95.9223H42.2794V83.8726Z" fill="#473F3B"/>
<path d="M39.0707 79.0297H16.5793V95.9223H39.0707V79.0297Z" fill="#665E5B"/>
<path d="M24.8944 79.0297H22.8829V86.473H16.5793V88.4795H22.8829V95.9226H24.8944V88.4795V86.473V79.0297Z" fill="#473F3B"/>
<path d="M39.0707 86.473H32.6829L32.6335 79.0297H30.6219L30.6713 86.473H26.6385V88.4795H30.6846L30.734 95.9226H32.7455L32.6961 88.4795H39.0707V86.473Z" fill="#473F3B"/>
<path d="M43.701 22.5978H41.6894V26.7433H33.4671V28.7498H41.6894V31.8158H43.701V28.7498V26.7433V22.5978Z" fill="#CEB29F"/>
<path d="M55.6614 26.7433V22.5978H53.6498V26.7433H45.2881V28.7498H53.6498V31.8158H55.6614V28.7498H63.8835V26.7433H55.6614Z" fill="#CEB29F"/>
</svg>
