<svg xmlns="http://www.w3.org/2000/svg" width="1920" height="491" fill="none" viewBox="0 0 1920 491"><path fill="#09F" fill-rule="evenodd" d="M0 144.725L53 106.725C107 68.7254 213 -8.27459 320 0.72541C427 10.7254 533 106.725 640 135.725C747 164.725 853 125.725 960 173.725C1067 221.725 1173 356.725 1280 327.725C1387 298.725 1493 106.725 1600 39.7254C1707 -27.2746 1813 29.7254 1867 58.7254L1920 87.7254V490.725H1867C1813 490.725 1707 490.725 1600 490.725C1493 490.725 1387 490.725 1280 490.725C1173 490.725 1067 490.725 960 490.725C853 490.725 747 490.725 640 490.725C533 490.725 427 490.725 320 490.725C213 490.725 107 490.725 53 490.725H0V144.725Z" clip-rule="evenodd"/></svg>