<svg width="1920" height="527" viewBox="0 0 1920 527" fill="none" xmlns="http://www.w3.org/2000/svg">
<path fill-rule="evenodd" clip-rule="evenodd" d="M0 288L40 250C80 211 160 134 240 86C320 38 400 19 480 106C560 192 640 384 720 470C800 557 880 538 960 451C1040 365 1120 211 1200 182C1280 154 1360 250 1440 307C1520 365 1600 384 1680 394C1760 403 1840 403 1880 403H1920V0H1880C1840 0 1760 0 1680 0C1600 0 1520 0 1440 0C1360 0 1280 0 1200 0C1120 0 1040 0 960 0C880 0 800 0 720 0C640 0 560 0 480 0C400 0 320 0 240 0C160 0 80 0 40 0H0V288Z" fill="#0099FF"/>
</svg>
